<svg xmlns="http://www.w3.org/2000/svg" width="36" height="36" viewBox="0 0 36 36" fill="none"><path d="M8.50781 10.8281V5.27344H12.7265V10.7578" stroke="black" stroke-width="2" stroke-miterlimit="22.926" stroke-linecap="round" stroke-linejoin="round"></path><path d="M23.2734 10.6875V5.27344H27.4922V10.6875" stroke="black" stroke-width="2" stroke-miterlimit="22.926" stroke-linecap="round" stroke-linejoin="round"></path><mask id="mask0_98_1220" style="mask-type:luminance" maskUnits="userSpaceOnUse" x="0" y="0" width="36" height="36"><path d="M0 3.8147e-06H36V36H0V3.8147e-06Z" fill="white"></path></mask><g mask="url(#mask0_98_1220)"><path d="M10.5469 1.05469H25.4531L27.4922 5.27344H8.50781L10.5469 1.05469Z" stroke="black" stroke-width="2" stroke-miterlimit="22.926" stroke-linecap="round" stroke-linejoin="round"></path><path d="M4.00781 10.8281H31.9922V30.7266C31.9922 33.0502 30.0971 34.9453 27.7734 34.9453C21.2578 34.9453 14.7421 34.9452 8.22656 34.9453C5.90295 34.9453 4.00781 33.0502 4.00781 30.7266V10.8281Z" stroke="black" stroke-width="2" stroke-miterlimit="22.926" stroke-linecap="round" stroke-linejoin="round"></path><path d="M17.9998 16.3828L20.4196 20.2427L24.8384 21.3514L21.9152 24.8456L22.2263 29.3906L17.9998 27.6903L13.7733 29.3906L14.0844 24.8456L11.1611 21.3514L15.5799 20.2427L17.9998 16.3828Z" stroke="#636EDF" stroke-width="2" stroke-miterlimit="22.926" stroke-linecap="round" stroke-linejoin="round"></path></g></svg>