<svg xmlns="http://www.w3.org/2000/svg" width="36" height="36" viewBox="0 0 36 36" fill="none"><path d="M24.75 33.6094H11.25M34.5938 9.42188V20.9531C34.5938 24.8363 31.4457 27.9844 27.5625 27.9844H8.43602C4.55358 27.9844 1.40625 24.837 1.40625 20.9546V9.42188C1.40625 5.53866 4.55428 2.39062 8.4375 2.39062H27.5625C31.4457 2.39062 34.5938 5.53866 34.5938 9.42188Z" stroke="black" stroke-width="2" stroke-miterlimit="10" stroke-linecap="round" stroke-linejoin="round"></path><path d="M24.8906 11.0391L27.6481 13.79C28.4715 14.6109 28.4715 15.9419 27.6481 16.7628L24.8906 19.4766M11.25 11.0391L8.49257 13.79C7.66914 14.6109 7.66914 15.9419 8.49257 16.7628L11.25 19.4766M16.4531 20.8828L19.6875 9.63281" stroke="#636EDF" stroke-width="2" stroke-miterlimit="10" stroke-linecap="round" stroke-linejoin="round"></path></svg>