<svg xmlns="http://www.w3.org/2000/svg" width="36" height="36" viewBox="0 0 36 36" fill="none"><mask id="mask0_98_1280" style="mask-type:luminance" maskUnits="userSpaceOnUse" x="0" y="0" width="36" height="36"><path d="M0 3.8147e-06H36V36H0V3.8147e-06Z" fill="white"></path></mask><g mask="url(#mask0_98_1280)"><path d="M21.1641 4.92188H26.6484C28.9784 4.92188 30.8672 6.81068 30.8672 9.14063V23.4141" stroke="black" stroke-width="2" stroke-miterlimit="10" stroke-linecap="round" stroke-linejoin="round"></path><path d="M30.8672 30.375C30.8672 32.7049 28.9784 34.5938 26.6484 34.5938H9.35937C7.02943 34.5938 5.14062 32.7049 5.14062 30.375V9.14063C5.14062 6.81068 7.02943 4.92188 9.35937 4.92188H14.9063" stroke="black" stroke-width="2" stroke-miterlimit="10" stroke-linecap="round" stroke-linejoin="round"></path><path d="M20.8125 4.92188V4.21875C20.8125 2.66541 19.5533 1.40625 18 1.40625C16.4467 1.40625 15.1875 2.66541 15.1875 4.21875V4.92188" stroke="black" stroke-width="2" stroke-miterlimit="10" stroke-linecap="round" stroke-linejoin="round"></path><path d="M20.8125 4.28906C20.8125 5.84241 19.5533 7.10156 18 7.10156C16.4467 7.10156 15.1875 5.84241 15.1875 4.28906" stroke="black" stroke-width="2" stroke-miterlimit="10" stroke-linecap="round" stroke-linejoin="round"></path><path d="M14.8359 13.0078L10.6172 17.2266" stroke="#636EDF" stroke-width="2" stroke-miterlimit="10" stroke-linecap="round" stroke-linejoin="round"></path><path d="M10.6172 13.0078L14.8359 17.2266" stroke="#636EDF" stroke-width="2" stroke-miterlimit="10" stroke-linecap="round" stroke-linejoin="round"></path><path d="M25.3828 25.1016L21.1641 29.3203" stroke="#636EDF" stroke-width="2" stroke-miterlimit="10" stroke-linecap="round" stroke-linejoin="round"></path><path d="M21.1641 25.1016L25.3828 29.3203" stroke="#636EDF" stroke-width="2" stroke-miterlimit="10" stroke-linecap="round" stroke-linejoin="round"></path><path d="M10.6875 29.6562C10.9119 29.6562 11.0937 29.4744 11.0937 29.25C11.0937 29.0256 10.9119 28.8438 10.6875 28.8438C10.4631 28.8438 10.2812 29.0256 10.2812 29.25C10.2812 29.4744 10.4631 29.6562 10.6875 29.6562Z" fill="#636EDF" stroke="#636EDF" stroke-width="2"></path><path d="M13.5703 26.0156L24.5391 13.7812" stroke="#636EDF" stroke-width="2" stroke-miterlimit="10" stroke-linecap="round" stroke-linejoin="round"></path><path d="M25.3828 17.9297V14.4141C25.3828 13.6374 24.7532 13.0078 23.9766 13.0078H20.4609" stroke="#636EDF" stroke-width="2" stroke-miterlimit="10" stroke-linecap="round" stroke-linejoin="round"></path></g></svg>