<svg xmlns="http://www.w3.org/2000/svg" width="36" height="36" viewBox="0 0 36 36" fill="none"><g clip-path="url(#clip0_98_1266)"><mask id="mask0_98_1266" style="mask-type:luminance" maskUnits="userSpaceOnUse" x="0" y="0" width="36" height="36"><path d="M0 3.8147e-06H36V36H0V3.8147e-06Z" fill="white"></path></mask><g mask="url(#mask0_98_1266)"><path d="M18.0003 26.7578C13.171 26.7578 9.24219 22.829 9.24219 17.9997C9.24219 13.1705 13.171 9.24163 18.0003 9.24163C22.8296 9.24163 26.7584 13.1705 26.7584 17.9997C26.7584 22.829 22.8296 26.7578 18.0003 26.7578Z" stroke="#636EDF" stroke-width="2" stroke-miterlimit="10"></path><path d="M14.5366 17.9598L16.8972 20.3203L21.5373 15.6803" stroke="#636EDF" stroke-width="2" stroke-miterlimit="10"></path><path d="M34.9453 20.119V15.881L31.5299 14.889C31.1787 13.361 30.5741 11.9291 29.7637 10.6386L31.4805 7.5162L28.4838 4.51948L25.3613 6.2363C24.071 5.42595 22.639 4.82126 21.111 4.47012L20.119 1.05469H15.881L14.889 4.47012C13.361 4.82126 11.929 5.42595 10.6387 6.2363L7.51619 4.51948L4.51948 7.5162L6.2363 10.6386C5.42594 11.9291 4.82126 13.361 4.47012 14.889L1.05469 15.881V20.119L4.47012 21.111C4.82126 22.6389 5.42594 24.0709 6.2363 25.3613L4.51948 28.4837L7.51619 31.4805L10.6387 29.7636C11.929 30.5741 13.361 31.1787 14.889 31.5299L15.881 34.9453H20.119L21.111 31.5299C22.639 31.1787 24.071 30.5741 25.3613 29.7636L28.4838 31.4805L31.4805 28.4837L29.7637 25.3613C30.5741 24.0709 31.1787 22.6389 31.5299 21.111L34.9453 20.119Z" stroke="black" stroke-width="2" stroke-miterlimit="10"></path></g></g><defs><clipPath id="clip0_98_1266"><rect width="36" height="36" fill="white"></rect></clipPath></defs></svg>