<svg xmlns="http://www.w3.org/2000/svg" width="36" height="36" viewBox="0 0 36 36" fill="none"><g clip-path="url(#clip0_98_1242)"><path d="M18 27.9141C21.1066 27.9141 23.625 30.4324 23.625 33.5391V34.9453H12.375V33.5391C12.375 30.4324 14.8934 27.9141 18 27.9141Z" stroke="black" stroke-width="2" stroke-miterlimit="10" stroke-linecap="round" stroke-linejoin="round"></path><path d="M18 27.9141C19.7475 27.9141 21.1641 26.4975 21.1641 24.75C21.1641 23.0025 19.7475 21.5859 18 21.5859C16.2525 21.5859 14.8359 23.0025 14.8359 24.75C14.8359 26.4975 16.2525 27.9141 18 27.9141Z" stroke="black" stroke-width="2" stroke-miterlimit="10" stroke-linecap="round" stroke-linejoin="round"></path><path d="M29.25 27.9141C32.3566 27.9141 34.875 30.4324 34.875 33.5391V34.9453H23.625V33.5391C23.625 30.4324 26.1434 27.9141 29.25 27.9141Z" stroke="black" stroke-width="2" stroke-miterlimit="10" stroke-linecap="round" stroke-linejoin="round"></path><path d="M29.25 27.9141C30.9975 27.9141 32.4141 26.4975 32.4141 24.75C32.4141 23.0025 30.9975 21.5859 29.25 21.5859C27.5025 21.5859 26.0859 23.0025 26.0859 24.75C26.0859 26.4975 27.5025 27.9141 29.25 27.9141Z" stroke="black" stroke-width="2" stroke-miterlimit="10" stroke-linecap="round" stroke-linejoin="round"></path><path d="M6.75 27.9141C9.85662 27.9141 12.375 30.4324 12.375 33.5391V34.9453H1.125V33.5391C1.125 30.4324 3.64338 27.9141 6.75 27.9141Z" stroke="black" stroke-width="2" stroke-miterlimit="10" stroke-linecap="round" stroke-linejoin="round"></path><path d="M6.75 27.9141C8.49746 27.9141 9.91406 26.4975 9.91406 24.75C9.91406 23.0025 8.49746 21.5859 6.75 21.5859C5.00254 21.5859 3.58594 23.0025 3.58594 24.75C3.58594 26.4975 5.00254 27.9141 6.75 27.9141Z" stroke="black" stroke-width="2" stroke-miterlimit="10" stroke-linecap="round" stroke-linejoin="round"></path><path d="M30.6562 7.38281H28.5469" stroke="#636EDF" stroke-width="2" stroke-miterlimit="10" stroke-linecap="round" stroke-linejoin="round"></path><path d="M5.34375 7.38281H7.45312" stroke="#636EDF" stroke-width="2" stroke-miterlimit="10" stroke-linecap="round" stroke-linejoin="round"></path><path d="M29.8928 3.05469L27.9106 3.77616" stroke="#636EDF" stroke-width="2" stroke-miterlimit="10" stroke-linecap="round" stroke-linejoin="round"></path><path d="M6.10693 11.7117L8.08911 10.9902" stroke="#636EDF" stroke-width="2" stroke-miterlimit="10" stroke-linecap="round" stroke-linejoin="round"></path><path d="M29.8933 11.7117L27.9111 10.9902" stroke="#636EDF" stroke-width="2" stroke-miterlimit="10" stroke-linecap="round" stroke-linejoin="round"></path><path d="M6.10693 3.05469L8.08911 3.77616" stroke="#636EDF" stroke-width="2" stroke-miterlimit="10" stroke-linecap="round" stroke-linejoin="round"></path><path d="M15.1875 13.0293V16.5232C15.1875 17.2999 15.8171 17.9294 16.5938 17.9294H19.4062C20.1829 17.9294 20.8125 17.2999 20.8125 16.5232V13.0293H15.1875Z" stroke="#636EDF" stroke-width="2" stroke-miterlimit="10" stroke-linecap="round" stroke-linejoin="round"></path><path d="M20.8125 13.0295C22.8907 11.9925 24.3281 9.8633 24.3281 7.38281C24.3281 3.88786 21.495 1.05469 18 1.05469C14.505 1.05469 11.6719 3.88786 11.6719 7.38281C11.6719 9.8633 13.1093 11.9925 15.1875 13.0295" stroke="#636EDF" stroke-width="2" stroke-miterlimit="10" stroke-linecap="round" stroke-linejoin="round"></path><path d="M18 13.0078V8.08594" stroke="#636EDF" stroke-width="2" stroke-miterlimit="10" stroke-linecap="round" stroke-linejoin="round"></path></g><defs><clipPath id="clip0_98_1242"><rect width="36" height="36" fill="white"></rect></clipPath></defs></svg>