<svg xmlns="http://www.w3.org/2000/svg" width="36" height="36" viewBox="0 0 36 36" fill="none"><g clip-path="url(#clip0_98_1331)"><mask id="mask0_98_1331" style="mask-type:luminance" maskUnits="userSpaceOnUse" x="0" y="0" width="36" height="36"><path d="M0 3.8147e-06H36V36H0V3.8147e-06Z" fill="white"></path></mask><g mask="url(#mask0_98_1331)"><path d="M32.9595 9.31632C30.3941 4.88255 25.6003 1.89941 20.1094 1.89941V16.7353L32.9595 24.1543C34.2222 21.9719 34.9453 19.4382 34.9453 16.7353C34.9453 14.0325 34.2222 11.4988 32.9595 9.31632Z" stroke="#636EDF" stroke-width="2" stroke-miterlimit="10" stroke-linecap="round" stroke-linejoin="round"></path><path d="M15.8906 19.2656V4.42969C10.3997 4.42969 5.60595 7.41284 3.04052 11.8466C1.77778 14.0291 1.05469 16.5628 1.05469 19.2656C1.05469 21.9684 1.77778 24.5021 3.04052 26.6846C5.60595 31.1184 10.3997 34.1016 15.8906 34.1016C21.3815 34.1016 26.1753 31.1184 28.7407 26.6846L15.8906 19.2656Z" stroke="black" stroke-width="2" stroke-miterlimit="10" stroke-linecap="round" stroke-linejoin="round"></path></g></g><defs><clipPath id="clip0_98_1331"><rect width="36" height="36" fill="white"></rect></clipPath></defs></svg>