<svg xmlns="http://www.w3.org/2000/svg" width="36" height="36" viewBox="0 0 36 36" fill="none"><g clip-path="url(#clip0_98_787)"><path d="M11.3792 35.2132H24.6212V31.682L26.8871 27.2091L20.1099 13.9082H15.8905L9.11328 27.2091L11.3792 31.682V35.2132Z" stroke="#636EDF" stroke-width="2" stroke-miterlimit="10" stroke-linecap="round" stroke-linejoin="round"></path><path d="M18 13.9082V23.6779" stroke="#636EDF" stroke-width="2" stroke-miterlimit="10" stroke-linecap="round" stroke-linejoin="round"></path><path d="M18 27.209C18.9752 27.209 19.7657 26.4185 19.7657 25.4434C19.7657 24.4682 18.9752 23.6777 18 23.6777C17.0249 23.6777 16.2344 24.4682 16.2344 25.4434C16.2344 26.4185 17.0249 27.209 18 27.209Z" stroke="#636EDF" stroke-width="2" stroke-miterlimit="10" stroke-linecap="round" stroke-linejoin="round"></path><path d="M11.3789 31.6816H24.6209" stroke="#636EDF" stroke-width="2" stroke-miterlimit="10" stroke-linecap="round" stroke-linejoin="round"></path><path d="M15.8574 2.92773H1.85742" stroke="black" stroke-width="2" stroke-miterlimit="10" stroke-linecap="round" stroke-linejoin="round"></path><path d="M20.1426 2.92773H34.1426" stroke="black" stroke-width="2" stroke-miterlimit="10" stroke-linecap="round" stroke-linejoin="round"></path><path d="M15.8573 3.08008C9.2487 4.02086 4.02184 9.24772 3.08105 15.8563" stroke="black" stroke-width="2" stroke-miterlimit="10" stroke-linecap="round" stroke-linejoin="round"></path><path d="M32.9188 15.8563C31.978 9.24772 26.7511 4.02086 20.1426 3.08008" stroke="black" stroke-width="2" stroke-miterlimit="10" stroke-linecap="round" stroke-linejoin="round"></path><path d="M20.1426 0.785156H15.8569V5.07087H20.1426V0.785156Z" stroke="black" stroke-width="2" stroke-miterlimit="10" stroke-linecap="round" stroke-linejoin="round"></path><path d="M35.2144 15.8574H30.9287V20.1431H35.2144V15.8574Z" stroke="black" stroke-width="2" stroke-miterlimit="10" stroke-linecap="round" stroke-linejoin="round"></path><path d="M5.07136 15.8574H0.785645V20.1431H5.07136V15.8574Z" stroke="black" stroke-width="2" stroke-miterlimit="10" stroke-linecap="round" stroke-linejoin="round"></path></g><defs><clipPath id="clip0_98_787"><rect width="36" height="36" fill="white"></rect></clipPath></defs></svg>